<svg width="256" height="256" viewBox="0 0 256 256" fill="none" xmlns="http://www.w3.org/2000/svg">
<g clip-path="url(#clip0)">
<rect width="256" height="256" fill="#008DD5" fill-opacity="0.15"/>
<path fill-rule="evenodd" clip-rule="evenodd" d="M132 266H123V80.7015C123 77.5526 125.015 75 127.5 75C129.985 75 132 77.5526 132 80.7015V266Z" fill="white"/>
<path fill-rule="evenodd" clip-rule="evenodd" d="M126.406 109.5C124.37 107.966 123.963 105.071 125.497 103.035L149.112 71.6967C150.647 69.6605 153.541 69.2537 155.577 70.7881C157.613 72.3225 158.02 75.217 156.486 77.2532L132.871 108.591C131.336 110.628 128.442 111.034 126.406 109.5Z" fill="white"/>
<path fill-rule="evenodd" clip-rule="evenodd" d="M126.492 144.284C124.643 142.529 124.567 139.607 126.322 137.758L142.21 121.014C143.965 119.165 146.887 119.088 148.737 120.843C150.586 122.598 150.663 125.52 148.908 127.37L133.019 144.113C131.264 145.962 128.342 146.039 126.492 144.284Z" fill="white"/>
<path fill-rule="evenodd" clip-rule="evenodd" d="M129.619 128.854C127.963 130.793 125.049 131.022 123.11 129.367L100.293 109.879C98.3541 108.223 98.1248 105.309 99.7806 103.37C101.436 101.432 104.35 101.202 106.289 102.858L129.107 122.346C131.045 124.002 131.275 126.916 129.619 128.854Z" fill="white"/>
<path fill-rule="evenodd" clip-rule="evenodd" d="M127.5 332.138C169.778 332.138 204.052 298.05 204.052 256C204.052 213.95 169.778 179.862 127.5 179.862C85.2216 179.862 50.9483 213.95 50.9483 256C50.9483 298.05 85.2216 332.138 127.5 332.138ZM127.5 348C178.586 348 220 306.81 220 256C220 205.19 178.586 164 127.5 164C76.4137 164 35 205.19 35 256C35 306.81 76.4137 348 127.5 348Z" fill="#252525"/>
<path fill-rule="evenodd" clip-rule="evenodd" d="M127.5 160.448C158.352 160.448 183.362 135.623 183.362 105C183.362 74.3768 158.352 49.5517 127.5 49.5517C96.6482 49.5517 71.6379 74.3768 71.6379 105C71.6379 135.623 96.6482 160.448 127.5 160.448ZM127.5 172C164.779 172 195 142.003 195 105C195 67.9969 164.779 38 127.5 38C90.2208 38 60 67.9969 60 105C60 142.003 90.2208 172 127.5 172Z" fill="#008DD5"/>
</g>
<defs>
<clipPath id="clip0">
<rect width="256" height="256" fill="white"/>
</clipPath>
</defs>
</svg>
