<svg width="45" height="45" viewBox="0 0 128 128" fill="none" xmlns="http://www.w3.org/2000/svg">
<path opacity="0.5" d="M63.5 119C32.8975 119 8 94.1025 8 63.5C8 32.8975 32.8975 8 63.5 8C94.1025 8 119 32.8975 119 63.5C119 94.1025 94.1025 119 63.5 119Z" fill="#C4C4C4"/>
<path d="M107.703 82.8044C110.298 76.8865 111.761 70.3645 111.761 63.5C111.761 36.8891 90.1109 15.2391 63.5 15.2391C36.8892 15.2391 15.2391 36.8891 15.2391 63.5C15.2391 70.3645 16.7021 76.8865 19.2969 82.8044H107.703Z" fill="white"/>
<path opacity="0.5" d="M68.6224 68.6224C65.8 71.4447 61.2071 71.4447 58.3847 68.6224C55.5624 65.8 49.0218 49.0217 49.0218 49.0217C49.0218 49.0217 65.8 55.5623 68.6224 58.3847C71.4448 61.2071 71.4448 65.8 68.6224 68.6224Z" fill="#C4C4C4"/>
<path opacity="0.5" d="M63.4999 27.3043C53.5208 27.3043 44.4718 31.3637 37.9177 37.9178L44.7396 44.7397C49.546 39.9333 56.1818 36.9565 63.4999 36.9565C78.136 36.9565 90.0434 48.8638 90.0434 63.5H99.6956C99.6956 43.5417 83.4582 27.3043 63.4999 27.3043Z" fill="#C4C4C4"/>
<path opacity="0.5" d="M27.3044 63.5H36.9566C36.9566 56.1819 39.9334 49.5461 44.7397 44.7397L37.9178 37.9178C31.3637 44.4719 27.3044 53.5208 27.3044 63.5Z" fill="#38B44E"/>
</svg>
