<svg width="128" height="128" viewBox="0 0 128 128" fill="none" xmlns="http://www.w3.org/2000/svg">
<path fill-rule="evenodd" clip-rule="evenodd" d="M73.5155 72.6714H53.4848V79.2136C53.4848 79.2136 54.8662 87.0642 63.8455 87.0642C72.8248 87.0642 73.5155 79.2136 73.5155 79.2136V72.6714Z" fill="#38B44E"/>
<path fill-rule="evenodd" clip-rule="evenodd" d="M82.1001 45.286C82.1001 45.393 82.0992 45.4998 82.0975 45.6064C82.1246 47.2732 81.9621 50.1553 80.8478 53.2882C79.2151 57.8784 73.4958 68.3929 72.8001 69.6659L72.7307 69.7928H54.1772C54.1772 69.7928 48.4513 58.3013 46.6399 53.2882C46.5818 53.1274 46.5257 52.9675 46.4714 52.8086C45.4611 50.5073 44.9001 47.9624 44.9001 45.286C44.9001 45.079 44.9035 44.8728 44.9102 44.6674C44.8972 44.3129 44.9005 44.119 44.9005 44.119H44.9359C45.536 34.3505 53.6181 26.6142 63.5001 26.6142C73.7726 26.6142 82.1001 34.9739 82.1001 45.286Z" fill="#38B44E"/>
<path d="M59.617 38.5253C61.5055 37.221 64.8902 35.9141 64.8902 35.9141C64.8902 35.9141 66.0777 38.7939 66.648 40.7013C67.0497 42.0451 67.3812 42.7888 67.5268 44.1828C67.6328 45.1971 67.5268 46.794 67.5268 46.794V48.0996C67.5268 48.0996 67.1801 48.4294 66.648 48.5348C65.8066 48.7014 65.7316 48.3681 64.8902 48.5348C64.3581 48.6402 63.6037 48.7033 63.1325 48.97C62.5003 49.3277 61.986 50.319 61.3747 50.7107C61.0526 50.9172 60.0564 51.1459 60.0564 51.1459L62.2536 42.0068L57.4198 52.8867C57.4198 52.8867 55.7566 50.946 55.2226 49.8403C54.7543 48.8707 54.513 48.2909 54.3438 47.2292C54.1832 46.2219 54.1235 45.6141 54.3438 44.618C54.6901 43.0518 55.483 42.3501 56.5409 41.1365C57.5748 39.9504 58.3192 39.4216 59.617 38.5253Z" fill="white"/>
<path d="M60.4959 55.4979L65.7691 54.6275L61.3747 56.8035C61.3747 56.8035 62.8175 58.657 64.0114 58.9794C65.0047 59.2477 65.6433 59.2026 66.648 58.9794C67.998 58.6795 68.6909 58.1501 69.724 57.2387C70.8263 56.2661 71.2491 55.494 71.9212 54.1923C72.3419 53.3774 72.8001 52.0163 72.8001 52.0163L69.724 50.7107C69.724 50.7107 67.623 49.883 66.2085 49.8403C65.3466 49.8144 64.8253 49.7759 64.0114 50.0579C63.2473 50.3227 62.8527 50.6068 62.2536 51.1459C61.6185 51.7174 61.2873 52.1117 60.9353 52.8867C60.5764 53.677 60.4959 55.4979 60.4959 55.4979Z" fill="white"/>
<path fill-rule="evenodd" clip-rule="evenodd" d="M63.5 14.3947C38.8985 14.3947 19.241 32.7976 19.241 55.1483C19.241 70.132 28.0428 83.3093 41.2855 90.4022L42.0434 90.8081L41.8839 91.6978C41.2028 95.4996 40.0019 101.27 38.3719 105.338C37.6084 107.244 36.4635 109.493 35.4559 111.359L60.8459 95.8309L61.1705 95.8464C61.9419 95.8833 62.7185 95.9019 63.5 95.9019C88.1015 95.9019 107.759 77.4989 107.759 55.1483C107.759 32.7976 88.1015 14.3947 63.5 14.3947ZM31.3184 114.046L31.3201 114.043L31.327 114.031L31.3552 113.984C31.3802 113.942 31.4175 113.879 31.4656 113.797C31.5618 113.634 31.7015 113.396 31.8745 113.096C32.2205 112.497 32.6988 111.657 33.227 110.691C34.29 108.749 35.5304 106.346 36.3119 104.396C37.7235 100.873 38.8265 95.8632 39.5222 92.1274C26.0826 84.6096 17 70.9048 17 55.1483C17 31.1612 37.9767 12 63.5 12C89.0233 12 110 31.1612 110 55.1483C110 79.1354 89.0233 98.2966 63.5 98.2966C62.7952 98.2966 62.094 98.282 61.3967 98.2532L32.8186 115.731L31.3184 114.046Z" fill="#C4C4C4"/>
</svg>
