<svg width="128" height="128" viewBox="0 0 128 128" fill="none" xmlns="http://www.w3.org/2000/svg">
<path fill-rule="evenodd" clip-rule="evenodd" d="M64.4999 95.2508C85.968 95.2508 103.371 77.8474 103.371 56.3793C103.371 34.9112 85.968 17.5078 64.4999 17.5078C43.0318 17.5078 25.6284 34.9112 25.6284 56.3793C25.6284 77.8474 43.0318 95.2508 64.4999 95.2508ZM64.4999 97.7586C87.3531 97.7586 105.879 79.2325 105.879 56.3793C105.879 33.5261 87.3531 15 64.4999 15C41.6467 15 23.1206 33.5261 23.1206 56.3793C23.1206 79.2325 41.6467 97.7586 64.4999 97.7586Z" fill="#38B44E"/>
<path d="M34.4059 67.6645L64.8118 112.806H4L34.4059 67.6645Z" fill="#38B44E"/>
<path fill-rule="evenodd" clip-rule="evenodd" d="M34.4059 67.6645L4 112.806H64.8118L34.4059 67.6645ZM34.4059 72.1535L8.71291 110.298H60.0989L34.4059 72.1535Z" fill="#C4C4C4"/>
<path d="M94.5941 67.6645L125 112.806H64.1882L94.5941 67.6645Z" fill="#38B44E"/>
<path fill-rule="evenodd" clip-rule="evenodd" d="M94.5941 67.6645L64.1882 112.806H125L94.5941 67.6645ZM94.5941 72.1535L68.9011 110.298H120.287L94.5941 72.1535Z" fill="#C4C4C4"/>
<path d="M64.4999 58.8872L102.507 112.492H26.4926L64.4999 58.8872Z" fill="#38B44E"/>
<path fill-rule="evenodd" clip-rule="evenodd" d="M64.4999 58.8872L26.4926 112.492H102.507L64.4999 58.8872ZM64.4999 63.223L31.3449 109.984H97.6549L64.4999 63.223Z" fill="#C4C4C4"/>
<path fill-rule="evenodd" clip-rule="evenodd" d="M65.7538 36.3166V61.395H63.246V36.3166H65.7538Z" fill="#C4C4C4"/>
<path d="M80.8009 36.9435H64.4999V48.2288H80.8009L76.4122 42.5862L80.8009 36.9435Z" fill="#38B44E"/>
<path fill-rule="evenodd" clip-rule="evenodd" d="M63.246 35.6897H83.3646L78.0007 42.5862L83.3646 49.4828H63.246V35.6897ZM65.7538 38.1975V46.9749H78.237L74.8236 42.5862L78.237 38.1975H65.7538Z" fill="#C4C4C4"/>
<path d="M58.1024 86.4733L51.9608 79.4747L64.244 61.395L77.0391 79.4747L70.3857 86.4733L64.244 80.0579L58.1024 86.4733Z" fill="white"/>
<path fill-rule="evenodd" clip-rule="evenodd" d="M64.2231 59.1946L78.6582 79.5917L70.389 88.2899L64.2442 81.8712L58.0623 88.3286L50.3785 79.5726L64.2231 59.1946ZM64.2652 63.5953L53.5433 79.3769L58.1427 84.6181L64.2442 78.2447L70.3826 84.6568L75.4203 79.3577L64.2652 63.5953Z" fill="#C4C4C4"/>
<path d="M29.2879 91.4891L24.3746 85.5402L34.2012 70.1725L44.4373 85.5402L39.1145 91.4891L34.2012 86.036L29.2879 91.4891Z" fill="white"/>
<path fill-rule="evenodd" clip-rule="evenodd" d="M34.1799 67.8784L46.0191 85.653L39.1178 93.3659L34.2013 87.9092L29.2467 93.4082L22.8261 85.6344L34.1799 67.8784ZM34.2227 72.4666L25.9232 85.4461L29.3293 89.57L34.2013 84.1627L39.1113 89.6122L42.8556 85.4275L34.2227 72.4666Z" fill="#C4C4C4"/>
<path d="M89.4761 91.4891L84.5627 85.5402L94.3894 70.1725L104.625 85.5402L99.3027 91.4891L94.3894 86.036L89.4761 91.4891Z" fill="white"/>
<path fill-rule="evenodd" clip-rule="evenodd" d="M94.3678 67.8784L106.207 85.653L99.3058 93.3659L94.3893 87.9092L89.4347 93.4082L83.0141 85.6344L94.3678 67.8784ZM94.4107 72.4666L86.1112 85.4461L89.5172 89.57L94.3893 84.1627L99.2993 89.6122L103.044 85.4275L94.4107 72.4666Z" fill="#C4C4C4"/>
</svg>
