<svg width="128" height="128" viewBox="0 0 128 128" fill="none" xmlns="http://www.w3.org/2000/svg">
<path d="M63.5 119C32.8975 119 8 94.1025 8 63.5C8 32.8975 32.8975 8 63.5 8C94.1025 8 119 32.8975 119 63.5C119 94.1025 94.1025 119 63.5 119Z" fill="#38B44E"/>
<path d="M107.922 83C110.53 77.0441 112 70.4801 112 63.5714C112 36.7893 90.2428 15 63.5 15C36.7574 15 15 36.7893 15 63.5714C15 70.4801 16.4702 77.0441 19.0778 83H107.922Z" fill="white"/>
<path d="M68.8557 68.8557C65.9966 71.7148 61.3439 71.7148 58.4848 68.8557C55.6257 65.9966 49 49 49 49C49 49 65.9966 55.6257 68.8557 58.4848C71.7148 61.3439 71.7148 65.9966 68.8557 68.8557Z" fill="#38B44E"/>
<path d="M63.6742 27C53.6591 27 44.5777 31.0374 38 37.5561L44.8464 44.3411C49.6701 39.5607 56.3298 36.6 63.6742 36.6C78.363 36.6 90.3131 48.443 90.3131 63H100C100 43.1496 83.7042 27 63.6742 27Z" fill="#38B44E"/>
<path d="M27 63H36.9648C36.9648 55.8485 40.038 49.3636 45 44.6666L37.9572 38C31.1908 44.405 27 53.248 27 63Z" fill="#C4C4C4"/>
</svg>
