<svg width="282" height="131" viewBox="0 0 282 131" fill="none" xmlns="http://www.w3.org/2000/svg">
<path fill-rule="evenodd" clip-rule="evenodd" d="M65.8428 46.5293C66.0688 47.6401 65.3515 48.7237 64.2407 48.9497L51.1678 51.6094C50.057 51.8354 48.9734 51.1182 48.7474 50.0074C48.5214 48.8966 49.2386 47.813 50.3494 47.587L63.4224 44.9273C64.5331 44.7013 65.6168 45.4185 65.8428 46.5293Z" fill="#38B44E"/>
<path fill-rule="evenodd" clip-rule="evenodd" d="M64.7409 48.2384C65.8517 48.0124 66.5689 46.9288 66.3429 45.818L63.6832 32.7451C63.4572 31.6343 62.3736 30.917 61.2628 31.143C60.1521 31.369 59.4348 32.4527 59.6608 33.5634L62.3205 46.6364C62.5465 47.7471 63.6301 48.4644 64.7409 48.2384Z" fill="#38B44E"/>
<path d="M42.3339 94C36.5123 94 31.3034 92.7391 26.7074 90.2172C22.1113 87.6953 18.5111 84.2091 15.9066 79.7587C13.3022 75.2341 12 70.1533 12 64.5161C12 58.8047 13.3022 53.7239 15.9066 49.2735C18.5111 44.7489 22.1113 41.2627 26.7074 38.815C31.3034 36.2931 36.5123 35.0322 42.3339 35.0322C47.1598 35.0322 51.526 35.9593 55.4327 37.8137C59.4159 39.5938 62.6332 42.227 65.0844 45.7131L60.833 48.7172C58.6882 45.8244 56.0072 43.6734 52.79 42.2641C49.6493 40.7806 46.164 40.0389 42.3339 40.0389C37.6613 40.0389 33.4482 41.0773 29.6948 43.1542C26.018 45.1568 23.1071 48.0125 20.9623 51.7212C18.8941 55.4298 17.86 59.6948 17.86 64.5161C17.86 69.3374 18.8941 73.6023 20.9623 77.311C23.1071 81.0197 26.018 83.9124 29.6948 85.9893C33.4482 87.992 37.6613 88.9933 42.3339 88.9933C46.164 88.9933 49.6493 88.2887 52.79 86.8794C56.0072 85.3959 58.6882 83.2078 60.833 80.315L65.0844 83.319C62.6332 86.8052 59.4159 89.4754 55.4327 91.3298C51.526 93.1099 47.1598 94 42.3339 94Z" fill="#38B44E"/>
<path d="M92.7639 11H98.509V93.555H92.7639V11Z" fill="#38B44E"/>
<path d="M184.885 65.8512H133.294C133.448 70.3758 134.635 74.4182 136.856 77.9786C139.078 81.4647 142.065 84.172 145.819 86.1005C149.649 88.029 153.938 88.9933 158.688 88.9933C162.594 88.9933 166.194 88.3257 169.488 86.9906C172.859 85.5813 175.655 83.5415 177.876 80.8713L181.208 84.5429C178.604 87.584 175.31 89.9205 171.327 91.5523C167.42 93.1841 163.169 94 158.573 94C152.598 94 147.274 92.7391 142.601 90.2172C137.929 87.6953 134.252 84.2091 131.571 79.7587C128.966 75.3083 127.664 70.2274 127.664 64.5161C127.664 58.8789 128.89 53.8351 131.341 49.3847C133.869 44.8601 137.316 41.3369 141.682 38.815C146.048 36.2931 150.951 35.0322 156.39 35.0322C161.828 35.0322 166.692 36.2931 170.982 38.815C175.348 41.2627 178.757 44.7118 181.208 49.1622C183.736 53.6126 185 58.6564 185 64.2936L184.885 65.8512ZM156.39 39.9276C152.177 39.9276 148.385 40.8548 145.014 42.7091C141.644 44.4893 138.925 47.0483 136.856 50.3861C134.865 53.6497 133.716 57.3584 133.409 61.5121H179.37C179.14 57.3584 177.991 53.6497 175.923 50.3861C173.855 47.1224 171.135 44.5634 167.765 42.7091C164.394 40.8548 160.603 39.9276 156.39 39.9276Z" fill="#38B44E"/>
<path fill-rule="evenodd" clip-rule="evenodd" d="M242 120H238V53.0597C238 51.9222 238.895 51 240 51C241.105 51 242 51.9222 242 53.0597V120Z" fill="#252525"/>
<path fill-rule="evenodd" clip-rule="evenodd" d="M239.627 66.651C238.722 65.9688 238.541 64.682 239.223 63.7767L249.722 49.844C250.404 48.9387 251.691 48.7579 252.596 49.4401C253.501 50.1222 253.682 51.4091 253 52.3144L242.501 66.2471C241.819 67.1523 240.532 67.3332 239.627 66.651Z" fill="#252525"/>
<path fill-rule="evenodd" clip-rule="evenodd" d="M239.665 82.1156C238.843 81.3353 238.809 80.0363 239.589 79.214L246.653 71.7702C247.434 70.9479 248.733 70.9139 249.555 71.6942C250.377 72.4744 250.411 73.7735 249.631 74.5958L242.567 82.0396C241.787 82.8619 240.488 82.8959 239.665 82.1156Z" fill="#252525"/>
<path fill-rule="evenodd" clip-rule="evenodd" d="M241.055 75.2558C240.319 76.1177 239.024 76.2197 238.162 75.4835L228.017 66.8194C227.155 66.0832 227.053 64.7877 227.789 63.9258C228.526 63.0638 229.821 62.9619 230.683 63.698L240.828 72.3622C241.689 73.0983 241.791 74.3939 241.055 75.2558Z" fill="#252525"/>
<path fill-rule="evenodd" clip-rule="evenodd" d="M240 88.9138C253.712 88.9138 264.828 77.9834 264.828 64.5C264.828 51.0166 253.712 40.0862 240 40.0862C226.288 40.0862 215.172 51.0166 215.172 64.5C215.172 77.9834 226.288 88.9138 240 88.9138ZM240 94C256.569 94 270 80.7924 270 64.5C270 48.2076 256.569 35 240 35C223.431 35 210 48.2076 210 64.5C210 80.7924 223.431 94 240 94Z" fill="#38B44E"/>
</svg>
